<?xml version="1.0" encoding="UTF-8" standalone="no"?>
<svg
   id="Hiking"
   enable-background="new 0 0 64 64"
   viewBox="0 0 103.61771 103.61771"
   version="1.1"
   width="103.61771"
   height="103.61771"
   sodipodi:docname="hiking.svg"
   inkscape:version="1.4.2 (f4327f4, 2025-05-13)"
   xmlns:inkscape="http://www.inkscape.org/namespaces/inkscape"
   xmlns:sodipodi="http://sodipodi.sourceforge.net/DTD/sodipodi-0.dtd"
   xmlns="http://www.w3.org/2000/svg"
   xmlns:svg="http://www.w3.org/2000/svg">
  <sodipodi:namedview
     id="namedview1"
     pagecolor="#ffffff"
     bordercolor="#000000"
     borderopacity="0.25"
     inkscape:showpageshadow="2"
     inkscape:pageopacity="0.0"
     inkscape:pagecheckerboard="0"
     inkscape:deskcolor="#d1d1d1"
     inkscape:zoom="2.2655393"
     inkscape:cx="-31.559814"
     inkscape:cy="39.063546"
     inkscape:window-width="1920"
     inkscape:window-height="1009"
     inkscape:window-x="-8"
     inkscape:window-y="-8"
     inkscape:window-maximized="1"
     inkscape:current-layer="Hiking" />
  <defs
     id="defs3" />
  <g
     id="g3"
     transform="translate(19.848087,22.083975)">
    <circle
       style="fill:#ffffff;fill-opacity:1;stroke-width:2.09443;stroke-linecap:round;stroke-linejoin:round;stroke-miterlimit:3"
       id="path4"
       cx="31.96077"
       cy="29.724882"
       r="51.808857" />
    <circle
       cx="36.41"
       cy="6.4959998"
       transform="matrix(0.812,-0.584,0.584,0.812,3.056,22.477)"
       id="ellipse1"
       r="6.4949999" />
    <path
       d="m 24.08374,38.27754 -3.46986,10.31968 -6.46983,11.20967 c -0.76999,1.33992 -0.30999,3.03988 1.01999,3.81982 0.45,0.24999 0.92996,0.37004 1.39992,0.37004 0.97,0 1.90997,-0.49998 2.41997,-1.39998 l 6.60978,-11.44965 c 0.09997,-0.15997 0.16998,-0.33001 0.22997,-0.50999 l 2.58994,-7.69971 -3.64991,-3.84991 c -0.23998,-0.26 -0.46996,-0.52995 -0.67997,-0.80997 z"
       id="path1" />
    <path
       d="m 51.71287,24.44796 c -0.1123,-1.06259 -0.94962,-1.8606 -1.96826,-1.98163 l 0.10748,-2.89523 c 0.01709,-0.46239 -0.34472,-0.85154 -0.80759,-0.86814 -0.46581,-0.02588 -0.85105,0.34472 -0.86814,0.80759 l -0.11401,3.07223 -8.25908,0.86521 -2.59995,-3.02987 0.10998,-0.63999 c 0.05005,-0.30999 0.08001,-0.61998 0.08001,-0.91995 0,-2.72996 -1.97992,-5.12984 -4.75986,-5.57984 -3.08987,-0.50999 -5.99981,1.58998 -6.50981,4.67984 l -1.72993,10.58969 -0.50999,3.10989 c -0.37999,2.31993 0.35003,4.68986 1.96997,6.38981 L 36.43332,49.2172 v 11.85961 c 0,1.45998 1.06998,2.76993 2.51994,2.90994 1.66993,0.15997 3.06991,-1.14999 3.06991,-2.77994 V 48.07722 c 0,-0.66996 -0.24999,-1.33992 -0.72996,-1.86994 L 41.25317,46.17731 34.21342,38.74755 35.94334,28.12783 30.6235,21.91806 c -0.26995,-0.32 -0.22997,-0.79001 0.08002,-1.05996 0.32,-0.27001 0.79001,-0.23003 1.05996,0.08002 l 5.40986,6.3098 c 0.41997,0.49998 1.04996,0.77994 1.68995,0.77994 0.07996,0 0.15997,-0.01001 0.23998,-0.01001 L 47.89474,27.099 46.55762,63.12673 c -0.01709,0.46239 0.34472,0.85154 0.80759,0.86814 0.01025,4.9e-4 0.02051,4.9e-4 0.03076,4.9e-4 0.4492,0 0.82077,-0.35546 0.83738,-0.80808 l 1.34591,-36.26436 0.14367,-0.01501 c 1.21994,-0.13001 2.11994,-1.22995 1.98994,-2.45995 z"
       id="path2" />
    <path
       d="m 19.84016,33.89114 c 1.16079,0.18975 2.25561,-0.59739 2.44536,-1.75818 l 2.65415,-16.23637 c 0.18969,-1.16073 -0.59745,-2.25554 -1.75818,-2.4453 l -5.77917,-0.94473 c -1.16073,-0.18975 -2.25554,0.59745 -2.4453,1.75818 L 12.30287,30.5011 c -0.18975,1.16079 0.59739,2.2556 1.75818,2.44536 z"
       id="path3" />
  </g>
</svg>
